<?xml version="1.0" standalone="no"?>
<!DOCTYPE svg PUBLIC "-//W3C//DTD SVG 20010904//EN"
 "http://www.w3.org/TR/2001/REC-SVG-20010904/DTD/svg10.dtd">
<svg version="1.0" xmlns="http://www.w3.org/2000/svg"
 width="345.000000pt" height="345.000000pt" viewBox="0 0 345.000000 345.000000"
 preserveAspectRatio="xMidYMid meet">
<metadata>
Created by potrace 1.14, written by Peter Selinger 2001-2017
</metadata>
<g transform="translate(0.000000,345.000000) scale(0.100000,-0.100000)"
fill="#000000" stroke="none">
<path d="M0 1725 l0 -1725 1725 0 1725 0 0 1725 0 1725 -1725 0 -1725 0 0
-1725z m910 280 l0 -95 90 0 90 0 0 -210 0 -210 -370 0 -370 0 0 -65 0 -65
370 0 370 0 0 -120 0 -120 -395 0 -395 0 0 95 0 95 -95 0 -95 0 0 300 0 299
93 3 92 3 3 93 3 92 304 0 305 0 0 -95z m542 3 c2 -74 6 -93 18 -94 8 -1 50
-2 93 -3 l77 -1 0 -90 0 -90 65 0 65 0 0 90 0 89 93 3 92 3 3 93 3 92 114 0
115 0 0 -120 0 -120 -90 0 -90 0 0 -90 0 -90 -95 0 -96 0 3 -67 3 -68 93 -3
92 -3 0 -89 0 -90 90 0 90 0 0 -120 0 -120 -115 0 -114 0 -3 93 -3 92 -92 3
-93 3 0 89 0 90 -65 0 -65 0 0 -90 0 -90 -95 0 -95 0 0 -95 0 -95 -119 0 -119
0 3 48 c2 26 3 80 4 120 l1 72 90 0 90 0 0 90 0 89 93 3 92 3 0 65 0 65 -92 3
-93 3 0 89 0 90 -90 0 c-79 0 -90 2 -91 18 -1 9 -2 63 -3 119 l-1 103 117 0
117 0 3 -92z m1658 -3 l0 -95 90 0 90 0 0 -300 0 -300 -90 0 -90 0 0 -95 0
-95 -305 0 -305 0 0 95 0 95 -90 0 -90 0 0 300 0 300 90 0 90 0 0 95 0 95 305
0 305 0 0 -95z"/>
<path d="M350 1795 l0 -65 255 0 255 0 0 65 0 65 -255 0 -255 0 0 -65z"/>
<path d="M2550 1610 l0 -250 255 0 255 0 0 250 0 250 -255 0 -255 0 0 -250z"/>
</g>
</svg>
